<svg xmlns="http://www.w3.org/2000/svg" width="91" height="91" viewBox="0 0 91 91" fill="none"><g clip-path="url(#clip0_1039_33470)"><path d="M60.5 53.2661H32C31.1716 53.2661 30.5 52.5945 30.5 51.7661C30.5 50.9377 31.1716 50.2661 32 50.2661H60.5C63.8123 50.2626 66.4965 47.5784 66.5 44.2661V8.26611C66.4973 5.78196 64.4842 3.76884 62 3.76611H8C5.51585 3.76884 3.50273 5.78196 3.5 8.26611V45.7661C3.50273 48.2503 5.51585 50.2634 8 50.2661H23C23.8284 50.2661 24.5 50.9377 24.5 51.7661C24.5 52.5945 23.8284 53.2661 23 53.2661H8C3.85989 53.2612 0.504877 49.9062 0.5 45.7661V8.26611C0.504877 4.126 3.85989 0.77099 8 0.766113H62C66.1401 0.77099 69.4951 4.126 69.5 8.26611V44.2661C69.4946 49.2344 65.4683 53.2607 60.5 53.2661Z" fill="#FBC988"></path><path d="M23 41.2661H2C1.17157 41.2661 0.5 40.5945 0.5 39.7661C0.5 38.9377 1.17157 38.2661 2 38.2661H23C23.8284 38.2661 24.5 38.9377 24.5 39.7661C24.5 40.5945 23.8284 41.2661 23 41.2661Z" fill="#FBC988"></path><path d="M89 65.2661H23C22.1716 65.2661 21.5 64.5945 21.5 63.7661C21.5 62.9377 22.1716 62.2661 23 62.2661H89C89.8284 62.2661 90.5 62.9377 90.5 63.7661C90.5 64.5945 89.8284 65.2661 89 65.2661Z" fill="#FA991D"></path><path d="M63.5 84.7661H48.5C47.6716 84.7661 47 84.0945 47 83.2661V75.7661C47 74.9377 47.6716 74.2661 48.5 74.2661H63.5C64.3284 74.2661 65 74.9377 65 75.7661V83.2661C65 84.0945 64.3284 84.7661 63.5 84.7661ZM50 81.7661H62V77.2661H50V81.7661Z" fill="#FA991D"></path><path d="M69.5 90.7661H42.5C40.8439 90.7642 39.5019 89.4222 39.5 87.7661C39.5035 84.4538 42.1877 81.7696 45.5 81.7661H66.5C69.8123 81.7696 72.4965 84.4538 72.5 87.7661C72.4981 89.4222 71.1561 90.7642 69.5 90.7661ZM45.5 84.7661C43.8439 84.768 42.5019 86.11 42.5 87.7661H69.5C69.4981 86.11 68.1561 84.768 66.5 84.7661H45.5Z" fill="#FA991D"></path><path d="M81.5 77.2661H29C24.8599 77.2612 21.5049 73.9062 21.5 69.7661V32.2661C21.5049 28.126 24.8599 24.771 29 24.7661H55.3789L51.9395 21.3266C51.371 20.738 51.3792 19.8025 51.9578 19.2239C52.5364 18.6453 53.4719 18.6372 54.0605 19.2056L60.0605 25.2056C60.4894 25.6346 60.6176 26.2797 60.3855 26.8401C60.1534 27.4005 59.6066 27.766 59 27.7661H29C26.5159 27.7688 24.5027 29.782 24.5 32.2661V69.7661C24.5027 72.2503 26.5159 74.2634 29 74.2661H81.5C84.8123 74.2626 87.4965 71.5784 87.5 68.2661V32.2661C87.4973 29.782 85.4842 27.7688 83 27.7661H68C67.1716 27.7661 66.5 27.0945 66.5 26.2661C66.5 25.4377 67.1716 24.7661 68 24.7661H83C87.1401 24.771 90.4951 28.126 90.5 32.2661V68.2661C90.4946 73.2344 86.4683 77.2607 81.5 77.2661Z" fill="#FA991D"></path><path d="M52.9997 33.7661C52.3931 33.766 51.8463 33.4005 51.6142 32.8401C51.3821 32.2797 51.5104 31.6346 51.9392 31.2056L57.9392 25.2056C58.5278 24.6372 59.4634 24.6453 60.042 25.2239C60.6206 25.8025 60.6287 26.738 60.0602 27.3266L54.0602 33.3266C53.7793 33.6084 53.3976 33.7666 52.9997 33.7661Z" fill="#FA991D"></path><path d="M31.9997 53.2661C31.3931 53.266 30.8463 52.9005 30.6142 52.3401C30.3821 51.7797 30.5104 51.1346 30.9392 50.7056L36.9392 44.7056C37.5278 44.1372 38.4634 44.1453 39.042 44.7239C39.6206 45.3025 39.6287 46.238 39.0602 46.8266L33.0602 52.8266C32.7793 53.1084 32.3976 53.2666 31.9997 53.2661Z" fill="#FBC988"></path><path d="M37.9991 59.2661C37.6012 59.2666 37.2196 59.1084 36.9386 58.8266L30.9386 52.8266C30.3702 52.238 30.3783 51.3025 30.9569 50.7239C31.5355 50.1453 32.4711 50.1372 33.0596 50.7056L39.0596 56.7056C39.4885 57.1346 39.6168 57.7797 39.3847 58.3401C39.1525 58.9005 38.6057 59.266 37.9991 59.2661Z" fill="#FBC988"></path><path d="M57.5 71.2661H54.5C53.6716 71.2661 53 70.5945 53 69.7661C53 68.9377 53.6716 68.2661 54.5 68.2661H57.5C58.3284 68.2661 59 68.9377 59 69.7661C59 70.5945 58.3284 71.2661 57.5 71.2661Z" fill="#FBC988"></path><path d="M11 9.76611H8C7.17157 9.76611 6.5 9.09454 6.5 8.26611C6.5 7.43769 7.17157 6.76611 8 6.76611H11C11.8284 6.76611 12.5 7.43769 12.5 8.26611C12.5 9.09454 11.8284 9.76611 11 9.76611Z" fill="#FBC988"></path><path d="M35 9.76611H17C16.1716 9.76611 15.5 9.09454 15.5 8.26611C15.5 7.43769 16.1716 6.76611 17 6.76611H35C35.8284 6.76611 36.5 7.43769 36.5 8.26611C36.5 9.09454 35.8284 9.76611 35 9.76611Z" fill="#FBC988"></path></g><defs><clipPath id="clip0_1039_33470"><rect width="90" height="90" fill="white" transform="translate(0.5 0.766113)"></rect></clipPath></defs></svg>