<svg xmlns="http://www.w3.org/2000/svg" width="111" height="91" viewBox="0 0 111 91" fill="none"><g clip-path="url(#clip0_1039_33490)"><g clip-path="url(#clip1_1039_33490)"><path d="M59.7046 23.1706C59.6069 22.6559 59.1571 22.2836 58.6333 22.2836H33.2166C32.6143 22.2836 32.1262 22.7717 32.1262 23.374V33.8419C32.1262 34.4441 32.6143 34.9323 33.2166 34.9323H45.6971C44.4323 37.4236 42.4615 39.5277 40.0286 40.9545C37.7977 42.2641 35.2411 42.9562 32.635 42.9562C26.5633 42.9562 21.0534 39.1379 18.9236 33.4537C18.308 31.8164 17.9959 30.0883 17.9959 28.317C17.9959 26.6883 18.2619 25.0874 18.7859 23.5595C20.8168 17.6491 26.3824 13.678 32.6351 13.678C35.3825 13.678 38.059 14.4431 40.3748 15.8908C40.7713 16.1386 41.2817 16.1061 41.6434 15.8098L50.2155 8.79196C50.4674 8.58565 50.614 8.27753 50.6152 7.95209C50.6163 7.62643 50.4718 7.31744 50.2213 7.10941C45.2947 3.01895 39.0491 0.766113 32.635 0.766113C17.4433 0.766113 5.08398 13.1254 5.08398 28.3171C5.08398 32.8744 6.2196 37.3895 8.36815 41.3744C13.1886 50.3145 22.4872 55.8682 32.635 55.8682C38.9851 55.8682 45.1821 53.6559 50.0846 49.6391C54.9192 45.6779 58.2928 40.148 59.5833 34.0688C59.9832 32.191 60.186 30.2557 60.186 28.317C60.186 26.5851 60.0241 24.8536 59.7046 23.1706ZM32.635 2.94695C38.0963 2.94695 43.4248 4.72022 47.783 7.96511L40.8522 13.6393C38.3511 12.2356 35.5269 11.4972 32.635 11.4972C25.9696 11.4972 19.9863 15.4266 17.2931 21.4182L10.5292 15.8806C14.886 8.1669 23.1619 2.94695 32.635 2.94695ZM7.26482 28.3171C7.26482 24.5951 8.07069 21.0578 9.51669 17.8702L16.4926 23.5814C16.0435 25.1151 15.8151 26.7043 15.8151 28.3171C15.8151 30.0853 16.0868 31.8173 16.6225 33.4765L9.69039 39.151C8.10179 35.785 7.26482 32.0675 7.26482 28.3171ZM32.635 53.6873C23.5894 53.6873 15.2767 48.8947 10.7271 41.1206L17.4723 35.5991C18.7103 38.1805 20.5811 40.3987 22.949 42.0695C25.7931 44.0763 29.1425 45.1371 32.6349 45.1371C35.3711 45.1371 38.0602 44.4702 40.461 43.2064L47.4407 48.9203C43.1484 52.0042 37.9502 53.6873 32.635 53.6873ZM57.4504 33.6153C56.3064 39.0036 53.3837 43.9227 49.1944 47.5374L42.4231 41.9941C45.1264 40.0552 47.2179 37.344 48.3869 34.2244C48.5124 33.8895 48.4656 33.5144 48.262 33.2206C48.0583 32.9268 47.7234 32.7514 47.3659 32.7514H34.307V24.4643H57.7139C57.9074 25.7321 58.0052 27.0242 58.0052 28.317C58.0052 30.1035 57.8186 31.886 57.4504 33.6153Z" fill="#FBC988"></path></g><rect x="46.4219" y="49.4398" width="19.2857" height="18.3673" fill="white"></rect><path fill-rule="evenodd" clip-rule="evenodd" d="M71.9085 47.1444C71.9085 44.9899 70.1598 43.2418 68.005 43.2418H45.9641C43.8093 43.2418 42.0605 44.9899 42.0605 47.1444V69.1853C42.0605 71.3398 43.8093 73.0879 45.9641 73.0879H68.005C70.1598 73.0879 71.9085 71.3398 71.9085 69.1853V47.1444ZM69.6116 47.1444V69.1853C69.6116 70.0725 68.8924 70.7929 68.005 70.7929H45.9641C45.0767 70.7929 44.3574 70.0725 44.3574 69.1853V47.1444C44.3574 46.2573 45.0767 45.5368 45.9641 45.5368H68.005C68.8924 45.5368 69.6116 46.2573 69.6116 47.1444Z" fill="white"></path><path fill-rule="evenodd" clip-rule="evenodd" d="M68.0042 40.4868C71.6799 40.4868 74.6629 43.4677 74.6629 47.1445V69.1854C74.6629 72.8622 71.6799 75.8431 68.0042 75.8431H45.9633C42.2877 75.8431 39.3047 72.8622 39.3047 69.1854V47.1445C39.3047 43.4677 42.2877 40.4868 45.9633 40.4868H68.0042ZM66.8558 48.292H47.1118V68.0379H66.8558V48.292ZM68.0042 43.2419C70.159 43.2419 71.9078 44.99 71.9078 47.1445V69.1854C71.9078 71.3399 70.159 73.088 68.0042 73.088H45.9633C43.8086 73.088 42.0598 71.3399 42.0598 69.1854V47.1445C42.0598 44.99 43.8086 43.2419 45.9633 43.2419H68.0042ZM69.6109 69.1854V47.1445C69.6109 46.2574 68.8917 45.5369 68.0042 45.5369H45.9633C45.0759 45.5369 44.3567 46.2574 44.3567 47.1445V69.1854C44.3567 70.0726 45.0759 70.793 45.9633 70.793H68.0042C68.8917 70.793 69.6109 70.0726 69.6109 69.1854Z" fill="white"></path><path fill-rule="evenodd" clip-rule="evenodd" d="M50.0951 52.4256H63.8706C64.5043 52.4256 65.0184 51.9113 65.0184 51.2776C65.0184 50.6439 64.5043 50.1296 63.8706 50.1296H50.0951C49.4614 50.1296 48.9473 50.6439 48.9473 51.2776C48.9473 51.9113 49.4614 52.4256 50.0951 52.4256Z" fill="white"></path><path fill-rule="evenodd" clip-rule="evenodd" d="M63.8718 55.1806H50.0963C47.9405 55.1806 46.1934 53.4324 46.1934 51.2776C46.1934 49.1228 47.9405 47.3745 50.0963 47.3745H63.8718C66.0276 47.3745 67.7747 49.1228 67.7747 51.2776C67.7747 53.4324 66.0276 55.1806 63.8718 55.1806ZM50.0963 50.1296C49.4626 50.1296 48.9485 50.6439 48.9485 51.2776C48.9485 51.9113 49.4626 52.4255 50.0963 52.4255H63.8718C64.5055 52.4255 65.0196 51.9113 65.0196 51.2776C65.0196 50.6439 64.5055 50.1296 63.8718 50.1296H50.0963Z" fill="white"></path><path fill-rule="evenodd" clip-rule="evenodd" d="M55.8359 51.2758V65.0513C55.8359 65.685 56.3502 66.1991 56.9839 66.1991C57.6176 66.1991 58.1319 65.685 58.1319 65.0513V51.2758H55.8359Z" fill="white"></path><path fill-rule="evenodd" clip-rule="evenodd" d="M53.0801 48.5206H60.8862V65.0513C60.8862 67.2071 59.1379 68.9542 56.9831 68.9542C54.8284 68.9542 53.0801 67.2071 53.0801 65.0513V48.5206ZM58.1311 51.2757H55.8352V65.0513C55.8352 65.685 56.3495 66.1991 56.9831 66.1991C57.6168 66.1991 58.1311 65.685 58.1311 65.0513V51.2757Z" fill="white"></path><path fill-rule="evenodd" clip-rule="evenodd" d="M94.8663 37.5002C91.0649 37.5002 87.9785 40.5866 87.9785 44.388C87.9785 48.1895 91.0649 51.2758 94.8663 51.2758C98.6677 51.2758 101.754 48.1895 101.754 44.388C101.754 40.5866 98.6677 37.5002 94.8663 37.5002ZM94.8663 39.7962C97.4007 39.7962 99.4582 41.8537 99.4582 44.388C99.4582 46.9223 97.4007 48.9799 94.8663 48.9799C92.3319 48.9799 90.2744 46.9223 90.2744 44.388C90.2744 41.8537 92.3319 39.7962 94.8663 39.7962Z" fill="white"></path><path fill-rule="evenodd" clip-rule="evenodd" d="M85.2227 44.388C85.2227 39.0649 89.5425 34.7451 94.8656 34.7451C100.189 34.7451 104.508 39.0649 104.508 44.388C104.508 49.7111 100.189 54.0309 94.8656 54.0309C89.5425 54.0309 85.2227 49.7111 85.2227 44.388ZM96.7023 44.388C96.7023 43.3753 95.8783 42.5512 94.8656 42.5512C93.8528 42.5512 93.0288 43.3753 93.0288 44.388C93.0288 45.4007 93.8528 46.2247 94.8656 46.2247C95.8783 46.2247 96.7023 45.4007 96.7023 44.388ZM87.9778 44.388C87.9778 40.5865 91.0641 37.5002 94.8656 37.5002C98.667 37.5002 101.753 40.5865 101.753 44.388C101.753 48.1895 98.667 51.2758 94.8656 51.2758C91.0641 51.2758 87.9778 48.1895 87.9778 44.388ZM99.4574 44.388C99.4574 41.8537 97.3999 39.7961 94.8656 39.7961C92.3312 39.7961 90.2737 41.8537 90.2737 44.388C90.2737 46.9223 92.3312 48.9798 94.8656 48.9798C97.3999 48.9798 99.4574 46.9223 99.4574 44.388Z" fill="white"></path><path fill-rule="evenodd" clip-rule="evenodd" d="M85.6816 54.7196C85.6816 54.0859 86.1959 53.5717 86.8296 53.5717H102.901C103.535 53.5717 104.049 54.0859 104.049 54.7196V67.3472C104.049 72.4155 99.9336 76.5309 94.8653 76.5309C92.124 76.5309 89.6616 75.3267 87.9776 73.4188V67.3472C87.9776 71.1481 91.0644 74.235 94.8653 74.235C98.6662 74.235 101.753 71.1481 101.753 67.3472V55.8676H87.9776L85.6816 54.7196Z" fill="white"></path><path fill-rule="evenodd" clip-rule="evenodd" d="M82.9277 56.4225V54.7197C82.9277 52.5645 84.6755 50.8167 86.8308 50.8167H102.902C105.058 50.8167 106.805 52.5644 106.805 54.7197V67.3473C106.805 73.9372 101.456 79.2861 94.8665 79.2861C91.3003 79.2861 88.0969 77.7161 85.9132 75.2421L85.2237 74.4609V67.3473H87.9788V73.4189C89.6628 75.3268 92.1252 76.531 94.8665 76.531C99.9348 76.531 104.05 72.4156 104.05 67.3473V54.7197C104.05 54.086 103.536 53.5718 102.902 53.5718H86.8308C86.5724 53.5718 86.3338 53.6573 86.1419 53.8015C85.8632 54.011 85.6828 54.3444 85.6828 54.7197L87.9788 55.8677H101.754V67.3473C101.754 71.1482 98.6674 74.2351 94.8665 74.2351C93.3166 74.2351 91.8854 73.7218 90.7339 72.8561C90.3574 72.5731 90.0109 72.2525 89.6998 71.8998C88.6289 70.6856 87.9788 69.0916 87.9788 67.3473H90.7339C90.7339 69.6266 92.5872 71.48 94.8665 71.48C97.1458 71.48 98.9992 69.6266 98.9992 67.3473V58.6228H87.3284L82.9277 56.4225Z" fill="white"></path><path fill-rule="evenodd" clip-rule="evenodd" d="M70.7589 53.5717H87.9784C88.612 53.5717 89.1263 54.0859 89.1263 54.7196V75.3829C89.1263 83.6196 82.4394 90.3065 74.2028 90.3065C65.9662 90.3065 59.2793 83.6196 59.2793 75.3829V71.9391H61.5752V75.3829C61.5752 82.3522 67.2335 88.0105 74.2028 88.0105C81.1721 88.0105 86.8304 82.3522 86.8304 75.3829V55.8676H70.7589V53.5717Z" fill="white"></path><path fill-rule="evenodd" clip-rule="evenodd" d="M68.0031 50.8167H87.9776C90.1329 50.8167 91.8807 52.5644 91.8807 54.7197V75.383C91.8807 85.1413 83.9603 93.0617 74.2021 93.0617C64.4438 93.0617 56.5234 85.1413 56.5234 75.383V69.1841H64.3296V75.383C64.3296 80.8307 68.7544 85.2555 74.2021 85.2555C79.6497 85.2555 84.0745 80.8307 84.0745 75.383V58.6228H68.0031V50.8167ZM61.5745 71.9392H59.2785V75.383C59.2785 83.6197 65.9654 90.3066 74.2021 90.3066C82.4387 90.3066 89.1256 83.6197 89.1256 75.383V54.7197C89.1256 54.086 88.6113 53.5718 87.9776 53.5718H70.7582V55.8677H86.8296V75.383C86.8296 82.3523 81.1713 88.0106 74.2021 88.0106C67.2328 88.0106 61.5745 82.3523 61.5745 75.383V71.9392Z" fill="white"></path><path fill-rule="evenodd" clip-rule="evenodd" d="M64.46 44.3881C64.0789 43.3102 63.8711 42.1519 63.8711 40.9442C63.8711 35.2423 68.5008 30.6125 74.2028 30.6125C79.9047 30.6125 84.5344 35.2423 84.5344 40.9442C84.5344 46.6461 79.9047 51.2759 74.2028 51.2759C72.9951 51.2759 71.8368 51.0681 70.7589 50.687V48.2051C71.8035 48.7021 72.971 48.98 74.2028 48.98C78.6373 48.98 82.2385 45.3788 82.2385 40.9442C82.2385 36.5096 78.6373 32.9085 74.2028 32.9085C69.7682 32.9085 66.167 36.5096 66.167 40.9442C66.167 42.176 66.4448 43.3435 66.9419 44.3881H64.46Z" fill="white"></path><path fill-rule="evenodd" clip-rule="evenodd" d="M62.5111 47.1432L61.8617 45.3065C61.3782 43.9388 61.1152 42.4702 61.1152 40.9442C61.1152 33.7207 66.9785 27.8574 74.202 27.8574C81.4255 27.8574 87.2888 33.7207 87.2888 40.9442C87.2888 48.1677 81.4255 54.031 74.202 54.031C72.676 54.031 71.2074 53.768 69.8397 53.2845L68.003 52.6351V47.1432H62.5111ZM70.2392 44.907L71.9419 45.7172C72.6248 46.0422 73.3887 46.2248 74.202 46.2248C77.115 46.2248 79.4826 43.8572 79.4826 40.9442C79.4826 38.0312 77.115 35.6636 74.202 35.6636C71.289 35.6636 68.9214 38.0312 68.9214 40.9442C68.9214 41.7575 69.104 42.5214 69.429 43.2043L70.2392 44.907ZM66.6244 43.6225C66.7171 43.8841 66.8229 44.1396 66.9411 44.3881H64.4592C64.0781 43.3101 63.8703 42.1518 63.8703 40.9442C63.8703 35.2423 68.5001 30.6125 74.202 30.6125C79.9039 30.6125 84.5337 35.2423 84.5337 40.9442C84.5337 46.6461 79.9039 51.2759 74.202 51.2759C72.9943 51.2759 71.8361 51.0681 70.7581 50.6869V48.2051C71.0066 48.3233 71.262 48.4291 71.5237 48.5218C72.1547 48.7452 72.8215 48.8919 73.5132 48.9508C73.7403 48.9701 73.97 48.9799 74.202 48.9799C78.6366 48.9799 82.2377 45.3788 82.2377 40.9442C82.2377 36.5096 78.6366 32.9084 74.202 32.9084C69.7674 32.9084 66.1663 36.5096 66.1663 40.9442C66.1663 41.1762 66.1761 41.4059 66.1954 41.633C66.2543 42.3246 66.401 42.9915 66.6244 43.6225Z" fill="white"></path><path fill-rule="evenodd" clip-rule="evenodd" d="M71.9085 47.1446C71.9085 44.9901 70.1598 43.2419 68.005 43.2419H45.9641C43.8093 43.2419 42.0605 44.9901 42.0605 47.1446V69.1854C42.0605 71.3399 43.8093 73.0881 45.9641 73.0881H68.005C70.1598 73.0881 71.9085 71.3399 71.9085 69.1854V47.1446ZM69.6116 47.1446V69.1854C69.6116 70.0726 68.8924 70.793 68.005 70.793H45.9641C45.0767 70.793 44.3574 70.0726 44.3574 69.1854V47.1446C44.3574 46.2574 45.0767 45.537 45.9641 45.537H68.005C68.8924 45.537 69.6116 46.2574 69.6116 47.1446Z" fill="#FA991D"></path><path fill-rule="evenodd" clip-rule="evenodd" d="M50.097 52.4256H63.8726C64.5063 52.4256 65.0204 51.9113 65.0204 51.2776C65.0204 50.6439 64.5063 50.1296 63.8726 50.1296H50.097C49.4633 50.1296 48.9492 50.6439 48.9492 51.2776C48.9492 51.9113 49.4633 52.4256 50.097 52.4256Z" fill="#FA991D"></path><path fill-rule="evenodd" clip-rule="evenodd" d="M55.8359 51.2758V65.0513C55.8359 65.685 56.3502 66.1991 56.9839 66.1991C57.6176 66.1991 58.1319 65.685 58.1319 65.0513V51.2758H55.8359Z" fill="#FA991D"></path><path fill-rule="evenodd" clip-rule="evenodd" d="M94.8663 37.5002C91.0649 37.5002 87.9785 40.5866 87.9785 44.388C87.9785 48.1895 91.0649 51.2758 94.8663 51.2758C98.6677 51.2758 101.754 48.1895 101.754 44.388C101.754 40.5866 98.6677 37.5002 94.8663 37.5002ZM94.8663 39.7962C97.4007 39.7962 99.4582 41.8537 99.4582 44.388C99.4582 46.9223 97.4007 48.9799 94.8663 48.9799C92.3319 48.9799 90.2744 46.9223 90.2744 44.388C90.2744 41.8537 92.3319 39.7962 94.8663 39.7962Z" fill="#FA991D"></path><path fill-rule="evenodd" clip-rule="evenodd" d="M85.6836 54.7197C85.6836 54.0861 86.1979 53.5718 86.8316 53.5718H102.903C103.537 53.5718 104.051 54.0861 104.051 54.7197V67.3473C104.051 72.4156 99.9355 76.531 94.8673 76.531C92.126 76.531 89.6636 75.3268 87.9795 73.4189V67.3473C87.9795 71.1482 91.0664 74.2351 94.8673 74.2351C98.6682 74.2351 101.755 71.1482 101.755 67.3473V55.8677H87.9795L85.6836 54.7197Z" fill="#FA991D"></path><path fill-rule="evenodd" clip-rule="evenodd" d="M70.7589 53.5718H87.9784C88.612 53.5718 89.1263 54.0861 89.1263 54.7197V75.3831C89.1263 83.6197 82.4394 90.3066 74.2028 90.3066C65.9662 90.3066 59.2793 83.6197 59.2793 75.3831V71.9392H61.5752V75.3831C61.5752 82.3524 67.2335 88.0107 74.2028 88.0107C81.1721 88.0107 86.8304 82.3524 86.8304 75.3831V55.8677H70.7589V53.5718Z" fill="#FA991D"></path><path fill-rule="evenodd" clip-rule="evenodd" d="M64.46 44.3881C64.0789 43.3102 63.8711 42.1519 63.8711 40.9442C63.8711 35.2423 68.5008 30.6125 74.2028 30.6125C79.9047 30.6125 84.5344 35.2423 84.5344 40.9442C84.5344 46.6461 79.9047 51.2759 74.2028 51.2759C72.9951 51.2759 71.8368 51.0681 70.7589 50.687V48.2051C71.8035 48.7021 72.971 48.98 74.2028 48.98C78.6373 48.98 82.2385 45.3788 82.2385 40.9442C82.2385 36.5096 78.6373 32.9085 74.2028 32.9085C69.7682 32.9085 66.167 36.5096 66.167 40.9442C66.167 42.176 66.4448 43.3435 66.9419 44.3881H64.46Z" fill="#FA991D"></path></g><defs><clipPath id="clip0_1039_33490"><rect width="110.204" height="90" fill="white" transform="translate(0.5 0.766113)"></rect></clipPath><clipPath id="clip1_1039_33490"><rect width="55.102" height="55.102" fill="white" transform="translate(5.0918 0.766113)"></rect></clipPath></defs></svg>