<svg xmlns="http://www.w3.org/2000/svg" width="91" height="91" viewBox="0 0 91 91" fill="none"><path d="M11.75 71.0786H7.53125C7.15829 71.0786 6.8006 71.2268 6.53688 71.4905C6.27316 71.7542 6.125 72.1119 6.125 72.4849C6.125 72.8578 6.27316 73.2155 6.53688 73.4792C6.8006 73.743 7.15829 73.8911 7.53125 73.8911H11.75C12.123 73.8911 12.4806 73.743 12.7444 73.4792C13.0081 73.2155 13.1562 72.8578 13.1562 72.4849C13.1562 72.1119 13.0081 71.7542 12.7444 71.4905C12.4806 71.2268 12.123 71.0786 11.75 71.0786Z" fill="#FBC988"></path><path d="M17.375 71.0786H15.9688C15.5958 71.0786 15.2381 71.2268 14.9744 71.4905C14.7107 71.7542 14.5625 72.1119 14.5625 72.4849C14.5625 72.8578 14.7107 73.2155 14.9744 73.4792C15.2381 73.743 15.5958 73.8911 15.9688 73.8911H17.375C17.748 73.8911 18.1056 73.743 18.3694 73.4792C18.6331 73.2155 18.7812 72.8578 18.7812 72.4849C18.7812 72.1119 18.6331 71.7542 18.3694 71.4905C18.1056 71.2268 17.748 71.0786 17.375 71.0786Z" fill="#FBC988"></path><path d="M83.4688 30.2974H80.6562V19.0474C80.6543 17.5561 80.061 16.1265 79.0066 15.072C77.9521 14.0176 76.5225 13.4243 75.0312 13.4224H15.9688C14.4774 13.424 13.0477 14.0172 11.9931 15.0717C10.9386 16.1263 10.3454 17.556 10.3438 19.0474V44.3599H7.53125C6.03992 44.3615 4.61015 44.9547 3.55562 46.0092C2.50109 47.0638 1.90792 48.4935 1.90625 49.9849V72.4849C1.90792 73.9762 2.50109 75.406 3.55562 76.4605C4.61015 77.515 6.03992 78.1082 7.53125 78.1099H21.5938C23.085 78.1079 24.5146 77.5146 25.5691 76.4602C26.6235 75.4057 27.2168 73.9761 27.2188 72.4849V68.2661H39.4795L38.7764 71.0786H34.25C33.877 71.0786 33.5194 71.2268 33.2556 71.4905C32.9919 71.7542 32.8438 72.1119 32.8438 72.4849V76.7036C32.8438 77.0766 32.9919 77.4343 33.2556 77.698C33.5194 77.9617 33.877 78.1099 34.25 78.1099H83.4688C84.96 78.1079 86.3896 77.5146 87.4441 76.4602C88.4985 75.4057 89.0918 73.9761 89.0938 72.4849V35.9224C89.0918 34.4311 88.4985 33.0015 87.4441 31.947C86.3896 30.8926 84.96 30.2993 83.4688 30.2974ZM24.4062 72.4849C24.4053 73.2305 24.1086 73.9453 23.5814 74.4725C23.0542 74.9998 22.3394 75.2964 21.5938 75.2974H7.53125C6.78563 75.2964 6.07083 74.9998 5.54359 74.4725C5.01636 73.9453 4.71973 73.2305 4.71875 72.4849V49.9849C4.71973 49.2392 5.01636 48.5244 5.54359 47.9972C6.07083 47.47 6.78563 47.1733 7.53125 47.1724H9.32949L10.4158 50.4296C10.5092 50.7096 10.6882 50.9531 10.9277 51.1257C11.1672 51.2983 11.4548 51.3911 11.75 51.3911H17.375C17.6702 51.3911 17.9578 51.2983 18.1973 51.1257C18.4368 50.9531 18.6158 50.7096 18.7092 50.4296L19.7955 47.1724H21.5938C22.3394 47.1733 23.0542 47.47 23.5814 47.9972C24.1086 48.5244 24.4053 49.2392 24.4062 49.9849V72.4849ZM12.2949 47.1724H16.8301L16.3607 48.5786H12.7643L12.2949 47.1724ZM27.2188 65.4536V61.2349H52.5312V65.4536H27.2188ZM52.5312 68.2661V71.0786H52.2236L51.5205 68.2661H52.5312ZM49.3232 71.0786H41.6768L42.3799 68.2661H48.6201L49.3232 71.0786ZM35.6562 75.2974V73.8911H52.7088C52.8375 74.384 53.0327 74.8571 53.2889 75.2974H35.6562ZM52.5312 35.9224V58.4224H27.2188V49.9849C27.2168 48.4936 26.6235 47.064 25.5691 46.0095C24.5146 44.9551 23.085 44.3618 21.5938 44.3599H13.1562V19.0474C13.1572 18.3017 13.4539 17.5869 13.9811 17.0597C14.5083 16.5325 15.2231 16.2358 15.9688 16.2349H75.0312C75.7769 16.2358 76.4917 16.5325 77.0189 17.0597C77.5462 17.5869 77.8428 18.3017 77.8438 19.0474V30.2974H58.1562C56.665 30.2993 55.2354 30.8926 54.1809 31.947C53.1265 33.0015 52.5332 34.4311 52.5312 35.9224ZM86.2812 72.4849C86.2803 73.2305 85.9837 73.9453 85.4564 74.4725C84.9292 74.9998 84.2144 75.2964 83.4688 75.2974H58.1562C57.4106 75.2964 56.6958 74.9998 56.1686 74.4725C55.6414 73.9453 55.3447 73.2305 55.3438 72.4849V35.9224C55.3447 35.1767 55.6414 34.4619 56.1686 33.9347C56.6958 33.4075 57.4106 33.1108 58.1562 33.1099H83.4688C84.2144 33.1108 84.9292 33.4075 85.4564 33.9347C85.9837 34.4619 86.2803 35.1767 86.2812 35.9224V72.4849Z" fill="#FA991D"></path><path d="M83.4688 34.5161H58.1562C57.7833 34.5161 57.4256 34.6643 57.1619 34.928C56.8982 35.1917 56.75 35.5494 56.75 35.9224V68.2661C56.75 68.6391 56.8982 68.9968 57.1619 69.2605C57.4256 69.5242 57.7833 69.6724 58.1562 69.6724H83.4688C83.8417 69.6724 84.1994 69.5242 84.4631 69.2605C84.7268 68.9968 84.875 68.6391 84.875 68.2661V35.9224C84.875 35.5494 84.7268 35.1917 84.4631 34.928C84.1994 34.6643 83.8417 34.5161 83.4688 34.5161ZM82.0625 66.8599H59.5625V37.3286H82.0625V66.8599Z" fill="#FBC988"></path><path d="M69.4062 73.8911C70.1829 73.8911 70.8125 73.2615 70.8125 72.4849C70.8125 71.7082 70.1829 71.0786 69.4062 71.0786C68.6296 71.0786 68 71.7082 68 72.4849C68 73.2615 68.6296 73.8911 69.4062 73.8911Z" fill="#FBC988"></path></svg>